<svg width="100%" height="100%" viewBox="0 0 28 32" xmlns="http://www.w3.org/2000/svg" id="navbar_logo" style="fill: rgb(255, 255, 255);">
	<path d="M7.06553 32C5.28775 32 3.88528 31.7235 2.85812 31.1704C1.87047 30.5778 1.15935 29.8469 0.724786 28.9778C0.329724 28.0691 0.132194 27.1605 0.132194 26.2519C0.132194 24.9086 0.606268 23.5654 1.55442 22.2222C2.54207 20.8395 4.14207 19.4568 6.35442 18.0741C8.60627 16.6914 11.6285 15.3284 15.4211 13.9852L16.9026 13.4519L17.0803 7.58519C17.1198 6.12346 16.6655 4.91852 15.7174 3.97037C14.7692 2.98272 13.4458 2.48889 11.747 2.48889C10.4038 2.48889 9.21861 2.94321 8.19145 3.85185C7.16429 4.76049 6.43343 6.18272 5.99886 8.11852C5.91985 8.51358 5.50503 8.88889 4.75442 9.24445C4.0433 9.56049 3.09516 9.71852 1.90997 9.71852C1.23837 9.71852 0.724786 9.63951 0.369231 9.48148C0.0136752 9.32346 -0.0850902 8.9679 0.0729345 8.41482C0.705033 6.87408 1.75195 5.47161 3.21368 4.20741C4.6754 2.94321 6.33466 1.9358 8.19145 1.18518C10.0482 0.395061 11.8853 0 13.7026 0C16.2705 0 18.3643 0.612346 19.984 1.83704C21.6433 3.06173 22.4334 4.78025 22.3544 6.99259L21.7618 25.0667C21.7223 26.6074 22.0976 27.5951 22.8877 28.0296C23.7174 28.4642 25.2779 28.7605 27.5692 28.9185V30.2815L25.4952 30.8148C24.231 31.2099 23.2236 31.4667 22.4729 31.5852C21.7618 31.7432 21.2087 31.8222 20.8137 31.8222C19.747 31.8222 18.9371 31.5852 18.384 31.1111C17.8705 30.637 17.4952 30.084 17.2581 29.4519C17.0606 28.8198 16.9223 28.3062 16.8433 27.9111H16.3692C14.6705 29.5704 13.0705 30.6765 11.5692 31.2296C10.1075 31.7432 8.60627 32 7.06553 32ZM10.4433 28.0889C11.8655 28.0889 13.031 27.8716 13.9396 27.437C14.8877 26.963 15.7371 26.4691 16.4877 25.9556L16.8433 15.4667L16.3692 15.6444C13.5248 16.7111 11.3519 17.758 9.85071 18.7852C8.34948 19.8123 7.32232 20.8 6.76923 21.7482C6.25565 22.6963 5.99886 23.5654 5.99886 24.3556C5.99886 26.8444 7.48034 28.0889 10.4433 28.0889Z"></path>
</svg>